<svg width="147" height="31" viewBox="0 0 147 31" fill="none" xmlns="http://www.w3.org/2000/svg">
<path d="M0 13.9998C0 5.98371 6.18072 0 14.5904 0C22.9208 0 35.4296 5.94216 35.4296 13.9998C35.4296 22.0574 22.9208 27.9995 14.5904 27.9995C6.18072 27.9995 0 22.0196 0 13.9998ZM31.5194 13.9998C31.5194 7.95561 26.9859 3.47916 20.9185 3.47916C14.7793 3.47916 10.242 7.93295 10.242 13.9998C10.242 20.0666 14.7756 24.5204 20.9185 24.5204C26.9821 24.5204 31.5194 20.0628 31.5194 13.9998Z" fill="#2254A5"/>
<path d="M23.9863 30.9951C15.6522 30.9951 3.14337 25.053 3.14337 16.9991C3.14337 8.94532 15.6522 2.99561 23.9863 2.99561C32.3923 2.99561 38.573 8.97931 38.573 16.9991C38.573 25.019 32.3923 30.9951 23.9863 30.9951ZM17.6545 27.516C23.8012 27.516 28.3347 23.0433 28.3347 16.9991C28.3347 10.955 23.8012 6.47477 17.6545 6.47477C11.6098 6.47477 7.05355 10.9323 7.05355 16.9954C7.05355 23.0584 11.5909 27.516 17.6545 27.516Z" fill="#45B3E6"/>
<path d="M64.6442 19.089C64.6442 21.3747 62.9003 22.7168 59.5041 22.7168H49.9881V9.28329H59.1318C62.2211 9.28329 63.9486 10.5894 63.9486 12.7576C63.9729 13.3781 63.8152 13.9921 63.4949 14.5242C63.1746 15.0562 62.7057 15.4829 62.146 15.7519C63.6416 16.1731 64.6442 17.3062 64.6442 19.089ZM55.0106 10.8376V15.138H58.9457C60.905 15.138 62.0153 14.4066 62.0153 12.9894C62.0153 11.5723 60.905 10.8376 58.9457 10.8376H55.0106ZM62.7077 18.9355C62.7077 17.3813 61.5549 16.6923 59.442 16.6923H55.0106V21.1625H59.4257C61.5549 21.1625 62.7077 20.4898 62.7077 18.9355Z" fill="#45B3E6"/>
<path d="M78.9051 21.0482V22.7168H66.0483V9.28329H78.9051V10.9551H71.0676V15.0792H77.8045V16.7119H71.0741V21.0482H78.9051Z" fill="#45B3E6"/>
<path d="M95.1319 9.28329V22.7168H90.4654L85.4984 12.7151V22.7168H80.4726V9.28329H85.1522L90.4425 19.3013L90.4197 9.28329H95.1319Z" fill="#45B3E6"/>
<path d="M103.156 16.7478V22.7168H98.1265V9.28329H103.156V16.7935L107.002 9.28329H112.626L108.896 15.3274L114.259 22.7168H107.303L103.156 16.7478Z" fill="#45B3E6"/>
<path d="M113.23 16C113.23 12.0816 116.26 9.14285 120.388 9.14285C124.516 9.14285 130.613 12.062 130.613 16C130.613 19.938 124.473 22.8571 120.388 22.8571C116.303 22.8571 113.23 19.9347 113.23 16ZM128.693 16C128.693 13.0253 126.469 10.8375 123.494 10.8375C120.519 10.8375 118.269 13.0253 118.269 16C118.269 18.9747 120.493 21.1624 123.494 21.1624C126.495 21.1624 128.693 18.9747 128.693 16Z" fill="#45B3E6"/>
<path d="M146.262 9.28329V22.7168H141.582L136.615 12.7151V22.7168H131.589V9.28329H136.269L141.559 19.3013L141.54 9.28329H146.262Z" fill="#45B3E6"/>
</svg>
